# xmcd CD database file
#
# Track frame offsets:
#	150
#	16203
#	31030
#	48555
#	64784
#	84178
#	96715
#	113252
#	132968
#	148444
#
# Disc length: 2251 seconds
#
# Revision: 0
# Processed by: cddbd v1.5.2PL0 Copyright (c) Steve Scherf et al.
# Submitted via: CDex 1.51
#
DISCID=8108c90a
DTITLE=Whitney Rose - Heartbreaker of the Year
DYEAR=2015
DGENRE=Country
TTITLE0=Little Piece Of You
TTITLE1=My First Rodeo
TTITLE2=The Last Party
TTITLE3=Only Just A Dream
TTITLE4=Heartbreaker Of The Year
TTITLE5=Be My Baby
TTITLE6=The Devil Borrowed My Boots
TTITLE7=Ain't It Wise
TTITLE8=Lasso
TTITLE9=Whitney Rose - Tear In My Beer
EXTD=YEAR: 2015
EXTT0=
EXTT1=
EXTT2=
EXTT3=
EXTT4=
EXTT5=
EXTT6=
EXTT7=
EXTT8=
EXTT9=
PLAYORDER=
